<svg xmlns="http://www.w3.org/2000/svg" viewBox="0 0 500 500"><g id="freepik--Letter--inject-69"><path d="M223,233.63H378.19a17.37,17.37,0,0,1,17.05,16l6.1,95.34a14.9,14.9,0,0,1-15,16H231.1a17.38,17.38,0,0,1-17-16L208,249.65A14.89,14.89,0,0,1,223,233.63Z" style="fill:#0C7A9F"></path><path d="M223,233.63H378.19a17.37,17.37,0,0,1,17.05,16l6.1,95.34a14.9,14.9,0,0,1-15,16H231.1a17.38,17.38,0,0,1-17-16L208,249.65A14.89,14.89,0,0,1,223,233.63Z" style="fill:#fff;opacity:0.30000000000000004"></path><path d="M231.11,361H386.33a14.84,14.84,0,0,0,10.27-4l-92.82-73.2L220.3,357A16.78,16.78,0,0,0,231.11,361Z" style="fill:#0C7A9F"></path><path d="M231.11,361H386.33a14.84,14.84,0,0,0,10.27-4l-92.82-73.2L220.3,357A16.78,16.78,0,0,0,231.11,361Z" style="fill:#fff;opacity:0.5"></path><path d="M305.26,307l81.17-71.17a16.58,16.58,0,0,0-8.24-2.22H223a15.15,15.15,0,0,0-8,2.22Z" style="fill:#0C7A9F"></path><path d="M361.1,234l-5.41-84.7a9.29,9.29,0,0,0-9.15-8.61h-121a9.31,9.31,0,0,1,9.16,8.61l5.37,84" style="fill:#fff"></path><path d="M361.1,235.23a1.26,1.26,0,0,1-1.26-1.18l-5.41-84.7a8,8,0,0,0-7.89-7.42H232.26a10.48,10.48,0,0,1,3.69,7.26l5.37,84a1.27,1.27,0,1,1-2.53.16l-5.36-84a8,8,0,0,0-7.9-7.42,1.27,1.27,0,0,1,0-2.53h121A10.59,10.59,0,0,1,357,149.19l5.42,84.7a1.27,1.27,0,0,1-1.19,1.34Z" style="fill:#0C7A9F"></path><path d="M225.53,140.66a8,8,0,0,0-8.06,8.61h17.22A9.31,9.31,0,0,0,225.53,140.66Z" style="fill:#0C7A9F"></path><path d="M234.69,150.54H217.47a1.26,1.26,0,0,1-1.26-1.19,9.24,9.24,0,0,1,9.32-9.95A10.6,10.6,0,0,1,236,149.19a1.29,1.29,0,0,1-.34.95A1.3,1.3,0,0,1,234.69,150.54ZM218.75,148h14.47a8,8,0,0,0-7.69-6.08,6.68,6.68,0,0,0-6.78,6.08Z" style="fill:#0C7A9F"></path><path d="M346.54,140.66h-121a9.31,9.31,0,0,1,9.16,8.61l6.87,107.51L305.26,307l57.34-49.56-6.91-108.19A9.29,9.29,0,0,0,346.54,140.66Z" style="fill:#fff"></path><polygon points="241.56 256.78 305.25 307.02 362.6 257.46 300.71 298.33 241.56 256.78" style="fill:#0C7A9F;opacity:0.30000000000000004"></polygon><polygon points="349.48 208.7 248.49 208.7 247.98 200.83 348.98 200.83 349.48 208.7" style="fill:#0C7A9F;opacity:0.30000000000000004"></polygon><polygon points="328.68 233.09 250.04 233.09 249.54 225.22 328.18 225.22 328.68 233.09" style="fill:#0C7A9F;opacity:0.30000000000000004"></polygon><polygon points="352.6 257.48 293.24 257.48 292.74 249.6 352.1 249.6 352.6 257.48" style="fill:#0C7A9F;opacity:0.30000000000000004"></polygon><polygon points="251.6 257.48 283.38 257.48 282.87 249.6 251.1 249.6 251.6 257.48" style="fill:#0C7A9F;opacity:0.30000000000000004"></polygon><g style="opacity:0.5"><path d="M247.05,172.14l-.43-6.68h3.45a5,5,0,0,1,1.47.17,1.72,1.72,0,0,1,.86.6,2,2,0,0,1,.37,1.09,1.64,1.64,0,0,1-.78,1.61,2.29,2.29,0,0,1-.71.27,2.1,2.1,0,0,1,.55.24,3.13,3.13,0,0,1,.67.77l1.13,1.93h-2.34l-1.23-2a1.87,1.87,0,0,0-.41-.51.89.89,0,0,0-.52-.16H249l.18,2.71Zm1.82-4h.87a2.88,2.88,0,0,0,.54-.09.53.53,0,0,0,.33-.21.63.63,0,0,0,.1-.39.65.65,0,0,0-.24-.5,1.32,1.32,0,0,0-.78-.17h-.91Z" style="fill:#0C7A9F"></path><path d="M253.85,165.46h5.54l.09,1.43H256l.06,1.06h3.22l.08,1.36h-3.21l.08,1.32h3.57l.1,1.51h-5.64Z" style="fill:#0C7A9F"></path><path d="M265.3,169.41l1.85.55a3.16,3.16,0,0,1-.5,1.27,2.16,2.16,0,0,1-.92.77,3.57,3.57,0,0,1-1.46.26,4.43,4.43,0,0,1-1.8-.32,3.08,3.08,0,0,1-1.27-1.11,4.1,4.1,0,0,1-.63-2,3.28,3.28,0,0,1,.72-2.55,3.14,3.14,0,0,1,2.44-.89,3.56,3.56,0,0,1,2,.51,3.28,3.28,0,0,1,1.17,1.57l-1.79.4a1.91,1.91,0,0,0-.23-.44,1.44,1.44,0,0,0-.45-.37,1.33,1.33,0,0,0-.57-.13,1.13,1.13,0,0,0-1,.57,2.3,2.3,0,0,0-.2,1.31,2.62,2.62,0,0,0,.44,1.53,1.23,1.23,0,0,0,1,.41,1.1,1.1,0,0,0,.88-.33A2,2,0,0,0,265.3,169.41Z" style="fill:#0C7A9F"></path><path d="M267.82,168.81a3.26,3.26,0,0,1,.75-2.55,3.22,3.22,0,0,1,2.48-.91,3.74,3.74,0,0,1,2.63.89,3.62,3.62,0,0,1,1.06,2.51,4,4,0,0,1-.27,1.92,2.58,2.58,0,0,1-1.07,1.17,3.59,3.59,0,0,1-1.83.42,4.43,4.43,0,0,1-1.89-.36,3.1,3.1,0,0,1-1.28-1.14A4,4,0,0,1,267.82,168.81Zm2.06,0a2.39,2.39,0,0,0,.47,1.45,1.34,1.34,0,0,0,1,.44,1.2,1.2,0,0,0,1-.43,2.4,2.4,0,0,0,.26-1.55,2.14,2.14,0,0,0-.47-1.38,1.38,1.38,0,0,0-1.06-.44,1.18,1.18,0,0,0-1,.44A2.22,2.22,0,0,0,269.88,168.82Z" style="fill:#0C7A9F"></path><path d="M275.62,165.46h2.71l1.31,4.07.78-4.07h2.72l.42,6.68h-1.69l-.32-5.09-1,5.09H279l-1.63-5.09.33,5.09h-1.69Z" style="fill:#0C7A9F"></path><path d="M284.43,165.46h2.72l1.3,4.07.78-4.07H292l.43,6.68h-1.7l-.32-5.09-1,5.09h-1.53l-1.63-5.09.33,5.09h-1.69Z" style="fill:#0C7A9F"></path><path d="M293.26,165.46h5.54l.09,1.43h-3.47l.07,1.06h3.21l.09,1.36h-3.21l.08,1.32h3.57l.09,1.51h-5.63Z" style="fill:#0C7A9F"></path><path d="M300,165.46H302l2.75,3.7-.23-3.7h1.94l.43,6.68h-1.95l-2.73-3.66.23,3.66h-1.94Z" style="fill:#0C7A9F"></path><path d="M307.81,165.46h3.07a3.65,3.65,0,0,1,1.48.25,2.55,2.55,0,0,1,1,.7,3.34,3.34,0,0,1,.6,1.08,5.27,5.27,0,0,1,.25,1.29,4.66,4.66,0,0,1-.14,1.66,2.39,2.39,0,0,1-.62,1,2,2,0,0,1-.89.53,4.74,4.74,0,0,1-1.22.18h-3.07ZM310,167l.23,3.65h.5a2,2,0,0,0,.92-.15.89.89,0,0,0,.39-.5,2.92,2.92,0,0,0,.08-1.16,2.3,2.3,0,0,0-.44-1.45,1.53,1.53,0,0,0-1.17-.39Z" style="fill:#0C7A9F"></path><path d="M319.11,171h-2.34l-.26,1.1H314.4l2.09-6.68h2.25l2.94,6.68h-2.16Zm-.52-1.44-.89-2.41-.58,2.41Z" style="fill:#0C7A9F"></path><path d="M320.8,165.46h6.27l.11,1.65h-2.11l.33,5h-2.07l-.32-5H320.9Z" style="fill:#0C7A9F"></path><path d="M328.09,165.46h2.07l.43,6.68h-2.07Z" style="fill:#0C7A9F"></path><path d="M331.6,168.81a3.26,3.26,0,0,1,.75-2.55,3.2,3.2,0,0,1,2.48-.91,3.71,3.71,0,0,1,2.62.89,3.62,3.62,0,0,1,1.07,2.51,4,4,0,0,1-.27,1.92,2.58,2.58,0,0,1-1.07,1.17,3.59,3.59,0,0,1-1.83.42,4.39,4.39,0,0,1-1.89-.36,3.1,3.1,0,0,1-1.28-1.14A4,4,0,0,1,331.6,168.81Zm2.06,0a2.39,2.39,0,0,0,.47,1.45,1.34,1.34,0,0,0,1.05.44,1.2,1.2,0,0,0,1-.43,2.4,2.4,0,0,0,.26-1.55,2.19,2.19,0,0,0-.47-1.38,1.38,1.38,0,0,0-1.06-.44,1.18,1.18,0,0,0-1,.44A2.16,2.16,0,0,0,333.66,168.82Z" style="fill:#0C7A9F"></path><path d="M339.43,165.46h1.93l2.75,3.7-.23-3.7h1.94l.43,6.68h-1.94l-2.74-3.66.23,3.66h-1.94Z" style="fill:#0C7A9F"></path><path d="M277.31,175.59h2.07l.32,5h3.22l.11,1.65h-5.29Z" style="fill:#0C7A9F"></path><path d="M283.54,175.59h5.53l.09,1.42H285.7l.07,1.06H289l.09,1.37h-3.22l.09,1.32h3.56l.1,1.51H284Z" style="fill:#0C7A9F"></path><path d="M289.81,175.59h6.28l.11,1.65h-2.11l.32,5h-2.06l-.32-5h-2.11Z" style="fill:#0C7A9F"></path><path d="M296.56,175.59h6.27l.11,1.65h-2.11l.33,5h-2.07l-.32-5h-2.11Z" style="fill:#0C7A9F"></path><path d="M303.76,175.59h5.54l.09,1.42h-3.46l.06,1.06h3.22l.08,1.37h-3.21l.08,1.32h3.57l.1,1.51h-5.64Z" style="fill:#0C7A9F"></path><path d="M311,182.27l-.43-6.68H314a5.06,5.06,0,0,1,1.47.16,1.69,1.69,0,0,1,.86.61,1.93,1.93,0,0,1,.38,1.08,1.84,1.84,0,0,1-.18,1,1.59,1.59,0,0,1-.61.65,2.19,2.19,0,0,1-.71.27,1.86,1.86,0,0,1,.56.25,2.2,2.2,0,0,1,.35.35,3,3,0,0,1,.32.41l1.12,1.94h-2.33l-1.24-2a1.65,1.65,0,0,0-.4-.52,1,1,0,0,0-.52-.15h-.18l.17,2.71Zm1.82-4h.87a3.16,3.16,0,0,0,.54-.09.54.54,0,0,0,.32-.21.57.57,0,0,0,.1-.39.64.64,0,0,0-.23-.49,1.28,1.28,0,0,0-.78-.18h-.91Z" style="fill:#0C7A9F"></path></g></g></svg>