<svg xmlns="http://www.w3.org/2000/svg" viewBox="0 0 500 500"><g id="freepik--Folder--inject-33"><g style="opacity:0.9"><path d="M296.94,238.73h0a11.8,11.8,0,0,1,10.57-7.42h88.16c5.28,0,8.85,4.28,8,9.57L375.78,407.39A11.78,11.78,0,0,1,364.61,417H143.55a7.88,7.88,0,0,1-8-9.57l23.71-141.75a11.79,11.79,0,0,1,11.17-9.57H272.25C282.67,256.07,292.9,248.88,296.94,238.73Z" style="fill:#0C7A9F;opacity:0.9"></path></g><path d="M296.94,238.73h0a11.8,11.8,0,0,1,10.57-7.42h88.16c5.28,0,8.85,4.28,8,9.57L375.78,407.39A11.78,11.78,0,0,1,364.61,417H143.55a7.88,7.88,0,0,1-8-9.57l23.71-141.75a11.79,11.79,0,0,1,11.17-9.57H272.25C282.67,256.07,292.9,248.88,296.94,238.73Z" style="fill:#fff;opacity:0.5"></path><path d="M261.85,90.89l-66.71,231.8,152.6,43.91,66.7-231.8Z" style="fill:#0C7A9F;opacity:0.9"></path><path d="M261.85,90.89l-66.71,231.8,152.6,43.91,66.7-231.8Z" style="fill:#fff;opacity:0.7000000000000001"></path><path d="M258.89,101.16,195.14,322.69l147.41,42.42L402.3,135.83Z" style="fill:#0C7A9F;opacity:0.9;mix-blend-mode:multiply"></path><path d="M258.89,101.16,195.14,322.69l147.41,42.42L402.3,135.83Z" style="fill:#0C7A9F;opacity:0.6000000000000001"></path><g style="opacity:0.9"><path d="M258.89,101.16,195.14,322.69l147.41,42.42L402.3,135.83Z" style="fill:#fff;opacity:0.9;mix-blend-mode:multiply"></path><path d="M258.89,101.16,195.14,322.69l147.41,42.42L402.3,135.83Z" style="fill:#fff;opacity:0.6000000000000001"></path></g><circle cx="292.21" cy="145.79" r="27.51" transform="translate(-9.89 269.8) rotate(-48.83)" style="fill:#0C7A9F"></circle><path d="M286.18,166.73a21.8,21.8,0,1,1,27-14.91A21.79,21.79,0,0,1,286.18,166.73Z" style="fill:#fff"></path><rect x="251.69" y="182.49" width="50.54" height="11.36" transform="translate(62.83 -69.25) rotate(16.05)" style="fill:#0C7A9F"></rect><rect x="221.16" y="270.58" width="27.86" height="44.16" transform="translate(90.1 -53.6) rotate(16.05)" style="fill:#0C7A9F"></rect><rect x="315.9" y="297.84" width="27.86" height="44.16" transform="translate(101.33 -78.73) rotate(16.05)" style="fill:#0C7A9F"></rect><rect x="268.53" y="284.21" width="27.86" height="44.16" transform="translate(95.71 -66.16) rotate(16.05)" style="fill:#0C7A9F"></rect><rect x="306.96" y="196.04" width="34.19" height="11.36" transform="translate(68.42 -81.75) rotate(16.05)" style="fill:#0C7A9F"></rect><rect x="244.33" y="216.64" width="125.11" height="4.68" transform="translate(72.52 -76.32) rotate(16.05)" style="fill:#fff"></rect><rect x="242.81" y="217.5" width="62.21" height="4.68" transform="translate(71.47 -67.17) rotate(16.05)" style="fill:#fff"></rect><rect x="313.22" y="234.8" width="41.61" height="4.68" transform="translate(78.6 -83.12) rotate(16.05)" style="fill:#fff"></rect><rect x="239.32" y="232.28" width="100.01" height="4.68" transform="translate(76.16 -70.86) rotate(16.05)" style="fill:#fff"></rect><rect x="236.28" y="243.91" width="114.96" height="4.68" transform="matrix(0.96, 0.28, -0.28, 0.96, 79.55, -71.63)" style="fill:#fff"></rect><rect x="235.51" y="239.41" width="13.28" height="4.68" transform="translate(76.29 -57.54) rotate(16.05)" style="fill:#fff"></rect><rect x="257.62" y="252.3" width="58.68" height="4.68" transform="translate(81.61 -69.42) rotate(16.05)" style="fill:#fff"></rect><rect x="230.58" y="264.43" width="125.11" height="4.68" transform="translate(85.2 -70.66) rotate(16.05)" style="fill:#fff"></rect><path d="M244.09,99l-58.65,234,154,38.61,58.64-234Z" style="fill:#0C7A9F"></path><path d="M244.09,99l-58.65,234,154,38.61,58.64-234Z" style="fill:#fff;opacity:0.8"></path><circle cx="276.33" cy="152.78" r="27.51" transform="translate(-38.94 135.36) rotate(-25.78)" style="fill:#0C7A9F"></circle><circle cx="276.33" cy="152.78" r="21.8" transform="translate(76.29 397.09) rotate(-79.63)" style="fill:#fff"></circle><rect x="237.29" y="189.98" width="50.54" height="11.36" transform="translate(55.45 -57.96) rotate(14.07)" style="fill:#0C7A9F"></rect><rect x="210.4" y="279.46" width="27.86" height="44.16" transform="translate(80.05 -45.49) rotate(14.07)" style="fill:#0C7A9F"></rect><rect x="306.02" y="303.43" width="27.86" height="44.16" transform="translate(88.74 -68.02) rotate(14.07)" style="fill:#0C7A9F"></rect><rect x="258.21" y="291.45" width="27.86" height="44.16" transform="translate(84.4 -56.76) rotate(14.07)" style="fill:#0C7A9F"></rect><rect x="293" y="201.9" width="34.19" height="11.36" transform="translate(59.77 -69.17) rotate(14.07)" style="fill:#0C7A9F"></rect><rect x="230.98" y="223.08" width="125.11" height="4.68" transform="translate(63.61 -64.6) rotate(14.07)" style="fill:#fff"></rect><rect x="229.51" y="225.08" width="62.21" height="4.68" transform="translate(63.11 -56.54) rotate(14.07)" style="fill:#fff"></rect><rect x="300.48" y="240.29" width="41.61" height="4.68" transform="translate(68.63 -70.84) rotate(14.07)" style="fill:#fff"></rect><rect x="226.52" y="239.32" width="100.01" height="4.68" transform="translate(67.05 -59.98) rotate(14.07)" style="fill:#fff"></rect><rect x="223.88" y="250.79" width="114.96" height="4.68" transform="translate(69.99 -60.81) rotate(14.07)" style="fill:#fff"></rect><rect x="222.99" y="248.08" width="13.28" height="4.68" transform="translate(67.77 -48.31) rotate(14.07)" style="fill:#fff"></rect><rect x="245.52" y="259.41" width="58.68" height="4.68" transform="translate(71.89 -58.97) rotate(14.07)" style="fill:#fff"></rect><rect x="218.89" y="271.32" width="125.11" height="4.68" transform="translate(74.98 -60.22) rotate(14.07)" style="fill:#fff"></rect><path d="M238.06,273.49h0c.19-3.75,3.47-6.4,7.93-6.4h88.17c5.28,0,10.37,3.69,11.37,8.25L372,408.7c1,4.56-2.48,8.26-7.76,8.26H143.15c-5.29,0-10.38-3.7-11.38-8.26L110,296.71c-1-4.56,2.48-8.26,7.77-8.26H219.55C230,288.45,237.64,282.25,238.06,273.49Z" style="fill:#0C7A9F;opacity:0.5"></path></g></svg>